<?xml version="1.0" standalone="no"?>
<!DOCTYPE svg PUBLIC "-//W3C//DTD SVG 20010904//EN"
 "http://www.w3.org/TR/2001/REC-SVG-20010904/DTD/svg10.dtd">
<svg version="1.0" xmlns="http://www.w3.org/2000/svg"
 width="222.000000pt" height="227.000000pt" viewBox="0 0 222.000000 227.000000"
 preserveAspectRatio="xMidYMid meet">

<g transform="translate(0.000000,227.000000) scale(0.100000,-0.100000)"
fill="#000000" stroke="none">
<path d="M1055 2264 c-196 -27 -300 -56 -427 -120 -286 -143 -498 -397 -583
-697 -89 -317 -38 -662 138 -930 348 -532 1143 -682 1643 -309 78 58 212 191
234 231 11 21 9 21 -135 21 -145 0 -147 0 -188 -29 -232 -158 -600 -196 -888
-91 -203 74 -344 199 -434 385 -52 108 -72 181 -85 312 -18 189 12 356 92 523
45 93 61 115 147 200 78 79 112 104 181 138 140 68 218 85 405 86 134 0 174
-3 250 -22 272 -68 461 -247 520 -492 39 -163 27 -383 -28 -504 -47 -102 -139
-176 -219 -176 -39 0 -48 12 -48 61 0 22 125 729 144 812 4 16 -8 17 -138 17
l-143 0 -12 -71 -13 -70 -54 51 c-211 199 -590 144 -781 -113 -159 -214 -195
-501 -91 -715 45 -93 159 -207 253 -253 67 -32 75 -34 180 -34 97 0 116 3 160
25 28 13 71 45 96 70 l45 45 20 -49 c15 -40 28 -54 64 -74 40 -21 54 -23 130
-19 215 13 448 153 580 347 55 81 87 155 115 266 62 242 35 482 -78 684 -45
81 -196 242 -278 298 -116 78 -293 150 -438 178 -77 15 -280 26 -336 18z m183
-900 c112 -46 164 -174 128 -313 -31 -120 -109 -198 -227 -227 -89 -22 -159
-8 -219 43 -58 50 -80 101 -80 190 0 146 79 266 205 311 45 16 151 14 193 -4z"/>
</g>
</svg>
